<svg xmlns="http://www.w3.org/2000/svg" viewBox="0 0 128 128">
  <rect width="128" height="128" rx="24" fill="#ffffff"/>
  <path d="M104 96c-18-13-42-16-66-6 14 18 39 23 60 12" fill="#08783b"/>
  <path d="M18 87c12-7 28-8 44-3-10 8-24 12-39 9" fill="#36a847"/>
  <path d="M24 78c12-8 29-11 47-6-13 8-30 12-46 10" fill="#168c35"/>
  <circle cx="65" cy="45" r="17" fill="#ff9d0a"/>
  <g stroke="#ff9d0a" stroke-width="3" stroke-linecap="round">
    <path d="M65 22v-7M47 28l-5-6M83 28l5-6M41 45h-8M89 45h8"/>
  </g>
  <path d="M17 78c7-25 25-42 51-51 16-6 31-5 44 2-23-2-45 8-61 23-14 13-22 25-25 37" fill="none" stroke="#238b24" stroke-width="7" stroke-linecap="round"/>
  <path d="M87 26c10 0 18-5 24-13 0 14-5 25-17 31-2-7-4-12-7-18Z" fill="#4aab25"/>
  <path d="M87 44c4-12 11-20 22-25-5 11-12 19-22 25Z" fill="#238b24"/>
  <path d="M51 68h8l2-14h5l2 14h7l-4 5v16h-4V72h-7v17h-4V72Z" fill="#112f55"/>
  <path d="M76 65c0-7 3-11 8-11s8 4 8 11l-3 2v14l-5 8-5-8V67Z" fill="#112f55"/>
  <path d="M97 69c5-4 9-3 11 2l-5 4-4 13-5-2 4-12Z" fill="#112f55"/>
  <path d="M18 101h92" stroke="#08783b" stroke-width="1.5"/>
  <text x="64" y="111" text-anchor="middle" fill="#08783b" font-family="Georgia, serif" font-size="8" font-weight="700">Rural</text>
  <text x="64" y="120" text-anchor="middle" fill="#08783b" font-family="Georgia, serif" font-size="5.5" font-weight="700">Employment Hub</text>
</svg>
